<?xml version="1.0" encoding="UTF-8"?>
<svg width="1338px" height="874px" viewBox="0 0 1338 874" xmlns="http://www.w3.org/2000/svg" xmlns:xlink="http://www.w3.org/1999/xlink" version="1.1">
 <!-- Generated by Pixelmator Pro 2.1.5 -->
 <path id="Path" d="M990.878 458.54 C990.988 550.214 955.554 638.357 892.025 704.443 Q886.283 710.455 880.228 716.18 871.003 724.955 861.158 733.049 C799.76 783.634 723.112 812.059 643.578 813.739 Q639.603 813.83 635.598 813.83 C572.168 813.83 492.388 779.95 419.988 733.049 Q411.003 727.229 402.178 721.14 398.053 718.32 393.968 715.419 C366.044 695.702 339.539 674.049 314.648 650.62 298.351 635.324 283.069 618.984 268.898 601.7 213.268 533.079 200.998 471.25 280.308 458.54 Q294.393 456.29 307.648 453.73 326.848 450.04 344.398 445.76 368.038 440.015 388.818 433.3 395.808 431.05 402.478 428.71 C468.218 405.62 512.218 375.51 542.168 342.84 Q549.788 334.545 556.218 326.05 C562.777 317.429 568.734 308.368 574.048 298.929 581.383 285.816 587.543 272.079 592.458 257.88 L592.728 257.1 C616.558 188.36 609.308 124.6 635.598 103.26 747.978 12.03 887.888 141.95 953.558 295.16 Q958.523 306.74 962.898 318.46 964.863 323.695 966.688 328.95 971.488 342.644 975.398 356.41 976.898 361.66 978.258 366.9 C979.228 370.67 980.158 374.43 981.018 378.19 987.408 405.72 990.878 432.87 990.878 458.54 Z" fill="#f2f2f2" fill-opacity="1" stroke="none"/>
 <path id="Path-1" d="M643.578 813.74 Q639.603 813.83 635.598 813.83 C572.168 813.83 492.388 779.95 419.988 733.05 Q411.003 727.23 402.178 721.14 L407.338 689.74 563.548 669 641.948 728.95 Z" fill="#2f2e41" fill-opacity="1" stroke="none"/>
 <path id="Path-2" d="M651.098 253.05 L628.838 253.05 C627.402 253.05 626.239 254.214 626.238 255.649 L626.238 277.919 C626.239 278.608 626.513 279.268 627.001 279.754 627.489 280.24 628.149 280.511 628.838 280.51 L651.098 280.51 C652.53 280.51 653.693 279.352 653.698 277.919 L653.698 255.649 C653.694 254.215 652.532 253.054 651.098 253.05 Z" fill="#ffffff" fill-opacity="1" stroke="none"/>
 <path id="Path-3" d="M651.098 291 L628.838 291 C627.402 291 626.239 292.164 626.238 293.6 L626.238 315.87 C626.239 316.558 626.513 317.218 627.001 317.704 627.489 318.19 628.149 318.462 628.838 318.46 L651.098 318.46 C652.53 318.46 653.693 317.302 653.698 315.87 L653.698 293.6 C653.694 292.165 652.532 291.004 651.098 291 Z" fill="#e6e6e6" fill-opacity="1" stroke="none"/>
 <path id="Path-4" d="M651.098 328.95 L628.838 328.95 C627.402 328.95 626.239 330.114 626.238 331.55 L626.238 353.81 C626.237 354.5 626.51 355.162 626.998 355.65 627.486 356.137 628.148 356.411 628.838 356.409 L651.098 356.409 C652.534 356.409 653.697 355.245 653.698 353.81 L653.698 331.55 C653.694 330.115 652.532 328.954 651.098 328.95 Z" fill="#e6e6e6" fill-opacity="1" stroke="none"/>
 <path id="Path-5" d="M653.658 369.04 C653.429 367.804 652.354 366.906 651.098 366.899 L628.838 366.899 C627.402 366.9 626.239 368.064 626.238 369.5 L626.238 391.76 C626.237 392.45 626.51 393.112 626.998 393.6 627.486 394.087 628.148 394.361 628.838 394.36 L651.098 394.36 C652.534 394.359 653.697 393.195 653.698 391.76 L653.698 369.5 C653.7 369.345 653.687 369.191 653.658 369.04 Z" fill="#e6e6e6" fill-opacity="1" stroke="none"/>
 <path id="Path-6" d="M652.108 405.05 C651.788 404.917 651.445 404.849 651.098 404.85 L628.838 404.85 C628.148 404.848 627.486 405.122 626.998 405.61 626.51 406.097 626.237 406.76 626.238 407.45 L626.238 429.71 C626.235 430.4 626.508 431.063 626.996 431.551 627.484 432.04 628.148 432.313 628.838 432.31 L651.098 432.31 C652.534 432.309 653.697 431.145 653.698 429.71 L653.698 407.45 C653.696 406.404 653.07 405.46 652.108 405.05 Z" fill="#e6e6e6" fill-opacity="1" stroke="none"/>
 <path id="Path-7" d="M697.858 253.05 L675.598 253.05 C674.162 253.05 672.999 254.214 672.998 255.649 L672.998 277.919 C672.999 278.608 673.273 279.268 673.761 279.754 674.249 280.24 674.91 280.511 675.598 280.51 L697.858 280.51 C699.29 280.51 700.453 279.352 700.458 277.919 L700.458 255.649 C700.454 254.215 699.292 253.054 697.858 253.05 Z" fill="#e6e6e6" fill-opacity="1" stroke="none"/>
 <path id="Path-8" d="M697.858 291 L675.598 291 C674.162 291 672.999 292.164 672.998 293.6 L672.998 315.87 C672.999 316.558 673.273 317.218 673.761 317.704 674.249 318.19 674.91 318.462 675.598 318.46 L697.858 318.46 C699.29 318.46 700.453 317.302 700.458 315.87 L700.458 293.6 C700.454 292.165 699.292 291.004 697.858 291 Z" fill="#ffb442" fill-opacity="1" stroke="none"/>
 <path id="Path-9" d="M697.858 328.95 L675.598 328.95 C674.162 328.95 672.999 330.114 672.998 331.55 L672.998 353.81 C672.997 354.5 673.27 355.162 673.758 355.65 674.246 356.137 674.908 356.411 675.598 356.409 L697.858 356.409 C699.294 356.409 700.457 355.245 700.458 353.81 L700.458 331.55 C700.454 330.115 699.292 328.954 697.858 328.95 Z" fill="#ffb442" fill-opacity="1" stroke="none"/>
 <path id="Path-10" d="M697.858 366.899 L675.598 366.899 C674.48 366.9 673.488 367.618 673.138 368.679 673.046 368.943 672.998 369.22 672.998 369.5 L672.998 391.76 C672.997 392.45 673.27 393.112 673.758 393.6 674.246 394.087 674.908 394.361 675.598 394.36 L697.858 394.36 C699.294 394.359 700.457 393.195 700.458 391.76 L700.458 369.5 C700.454 368.065 699.292 366.904 697.858 366.899 Z" fill="#ffb442" fill-opacity="1" stroke="none"/>
 <path id="Path-11" d="M697.858 404.85 L675.598 404.85 C674.908 404.848 674.246 405.122 673.758 405.61 673.27 406.097 672.997 406.76 672.998 407.45 L672.998 429.71 C672.997 430.4 673.27 431.062 673.758 431.55 674.246 432.038 674.908 432.311 675.598 432.31 L697.858 432.31 C699.294 432.309 700.457 431.145 700.458 429.71 L700.458 407.45 C700.457 406.014 699.294 404.85 697.858 404.85 Z" fill="#e6e6e6" fill-opacity="1" stroke="none"/>
 <path id="Path-12" d="M744.618 253.05 L722.358 253.05 C720.922 253.05 719.759 254.214 719.758 255.649 L719.758 277.919 C719.759 278.608 720.033 279.268 720.521 279.754 721.009 280.24 721.67 280.511 722.358 280.51 L744.618 280.51 C746.05 280.51 747.213 279.352 747.218 277.919 L747.218 255.649 C747.214 254.215 746.052 253.054 744.618 253.05 Z" fill="#ffb442" fill-opacity="1" stroke="none"/>
 <path id="Path-13" d="M744.618 291 L722.358 291 C720.922 291 719.759 292.164 719.758 293.6 L719.758 315.87 C719.759 316.558 720.033 317.218 720.521 317.704 721.009 318.19 721.67 318.462 722.358 318.46 L744.618 318.46 C746.05 318.46 747.213 317.302 747.218 315.87 L747.218 293.6 C747.214 292.165 746.052 291.004 744.618 291 Z" fill="#ffb442" fill-opacity="1" stroke="none"/>
 <path id="Path-14" d="M744.618 328.95 L722.358 328.95 C720.922 328.95 719.759 330.114 719.758 331.55 L719.758 353.81 C719.757 354.5 720.03 355.162 720.518 355.65 721.006 356.137 721.668 356.411 722.358 356.409 L744.618 356.409 C746.054 356.409 747.217 355.245 747.218 353.81 L747.218 331.55 C747.214 330.115 746.052 328.954 744.618 328.95 Z" fill="#e6e6e6" fill-opacity="1" stroke="none"/>
 <path id="Path-15" d="M744.618 366.899 L722.358 366.899 C720.922 366.9 719.759 368.064 719.758 369.5 L719.758 391.76 C719.757 392.45 720.03 393.112 720.518 393.6 721.006 394.087 721.668 394.361 722.358 394.36 L744.618 394.36 C746.054 394.359 747.217 393.195 747.218 391.76 L747.218 369.5 C747.214 368.065 746.052 366.904 744.618 366.899 Z" fill="#ffb442" fill-opacity="1" stroke="none"/>
 <path id="Path-16" d="M744.618 404.85 L722.358 404.85 C721.668 404.848 721.006 405.122 720.518 405.61 720.03 406.097 719.757 406.76 719.758 407.45 L719.758 429.71 C719.757 430.4 720.03 431.062 720.518 431.55 721.006 432.038 721.668 432.311 722.358 432.31 L744.618 432.31 C746.054 432.309 747.217 431.145 747.218 429.71 L747.218 407.45 C747.217 406.014 746.054 404.85 744.618 404.85 Z" fill="#ffb442" fill-opacity="1" stroke="none"/>
 <path id="Path-17" d="M791.378 253.05 L769.118 253.05 C767.682 253.05 766.519 254.214 766.518 255.649 L766.518 277.919 C766.519 278.608 766.793 279.268 767.281 279.754 767.769 280.24 768.43 280.511 769.118 280.51 L791.378 280.51 C792.81 280.51 793.973 279.352 793.978 277.919 L793.978 255.649 C793.974 254.215 792.812 253.054 791.378 253.05 Z" fill="#ffb442" fill-opacity="1" stroke="none"/>
 <path id="Path-18" d="M791.378 291 L769.118 291 C767.682 291 766.519 292.164 766.518 293.6 L766.518 315.87 C766.519 316.558 766.793 317.218 767.281 317.704 767.769 318.19 768.43 318.461 769.118 318.46 L791.378 318.46 C792.81 318.46 793.973 317.302 793.978 315.87 L793.978 293.6 C793.974 292.165 792.812 291.004 791.378 291 Z" fill="#ffffff" fill-opacity="1" stroke="none"/>
 <path id="Path-19" d="M791.378 328.95 L769.118 328.95 C767.682 328.95 766.519 330.114 766.518 331.55 L766.518 353.81 C766.517 354.5 766.79 355.162 767.278 355.65 767.766 356.137 768.428 356.411 769.118 356.409 L791.378 356.409 C792.814 356.409 793.977 355.245 793.978 353.81 L793.978 331.55 C793.974 330.115 792.812 328.954 791.378 328.95 Z" fill="#ffffff" fill-opacity="1" stroke="none"/>
 <path id="Path-20" d="M791.378 366.899 L769.118 366.899 C767.682 366.9 766.519 368.064 766.518 369.5 L766.518 391.76 C766.517 392.45 766.79 393.112 767.278 393.6 767.766 394.087 768.428 394.361 769.118 394.36 L791.378 394.36 C792.814 394.359 793.977 393.195 793.978 391.76 L793.978 369.5 C793.974 368.065 792.812 366.904 791.378 366.899 Z" fill="#e6e6e6" fill-opacity="1" stroke="none"/>
 <path id="Path-21" d="M791.378 404.85 L769.118 404.85 C768.428 404.848 767.766 405.122 767.278 405.61 766.79 406.097 766.517 406.76 766.518 407.45 L766.518 429.71 C766.517 430.4 766.79 431.062 767.278 431.55 767.766 432.037 768.428 432.311 769.118 432.31 L791.378 432.31 C792.814 432.309 793.977 431.145 793.978 429.71 L793.978 407.45 C793.977 406.014 792.814 404.85 791.378 404.85 Z" fill="#ffb442" fill-opacity="1" stroke="none"/>
 <path id="Path-22" d="M838.138 253.05 L815.868 253.05 C814.436 253.055 813.278 254.217 813.278 255.649 L813.278 277.919 C813.278 279.349 814.437 280.509 815.868 280.51 L838.138 280.51 C839.57 280.51 840.733 279.352 840.738 277.919 L840.738 255.649 C840.734 254.215 839.572 253.054 838.138 253.05 Z" fill="#ffffff" fill-opacity="1" stroke="none"/>
 <path id="Path-23" d="M838.138 291 L815.868 291 C814.436 291.005 813.277 292.167 813.278 293.6 L813.278 315.87 C813.278 317.299 814.437 318.459 815.868 318.46 L838.138 318.46 C839.57 318.46 840.733 317.302 840.738 315.87 L840.738 293.6 C840.734 292.165 839.572 291.004 838.138 291 Z" fill="#ffffff" fill-opacity="1" stroke="none"/>
 <path id="Path-24" d="M838.138 328.95 L815.868 328.95 C814.436 328.955 813.277 330.117 813.278 331.55 L813.278 353.81 C813.276 354.498 813.548 355.159 814.034 355.647 814.52 356.134 815.18 356.409 815.868 356.409 L838.138 356.409 C839.574 356.409 840.737 355.245 840.738 353.81 L840.738 331.55 C840.734 330.115 839.572 328.954 838.138 328.95 Z" fill="#ffffff" fill-opacity="1" stroke="none"/>
 <path id="Path-25" d="M838.138 366.899 L815.868 366.899 C814.436 366.905 813.278 368.067 813.278 369.5 L813.278 391.76 C813.276 392.448 813.548 393.109 814.034 393.597 814.52 394.084 815.18 394.359 815.868 394.36 L838.138 394.36 C839.574 394.359 840.738 393.195 840.738 391.76 L840.738 369.5 C840.734 368.065 839.572 366.904 838.138 366.899 Z" fill="#ffb442" fill-opacity="1" stroke="none"/>
 <path id="Path-26" d="M838.138 404.85 L815.868 404.85 C815.18 404.85 814.52 405.125 814.034 405.613 813.548 406.1 813.276 406.761 813.278 407.45 L813.278 429.71 C813.276 430.398 813.548 431.059 814.034 431.547 814.52 432.034 815.18 432.309 815.868 432.31 L838.138 432.31 C839.574 432.309 840.737 431.145 840.738 429.71 L840.738 407.45 C840.738 406.014 839.574 404.85 838.138 404.85 Z" fill="#e6e6e6" fill-opacity="1" stroke="none"/>
 <path id="Path-27" d="M884.898 253.05 L862.628 253.05 C861.196 253.055 860.038 254.217 860.038 255.649 L860.038 277.919 C860.038 279.349 861.197 280.509 862.628 280.51 L884.898 280.51 C886.33 280.51 887.493 279.352 887.498 277.919 L887.498 255.649 C887.494 254.215 886.332 253.054 884.898 253.05 Z" fill="#ffffff" fill-opacity="1" stroke="none"/>
 <path id="Path-28" d="M884.898 291 L862.628 291 C861.196 291.005 860.037 292.167 860.038 293.6 L860.038 315.87 C860.038 317.299 861.197 318.459 862.628 318.46 L884.898 318.46 C886.33 318.46 887.493 317.302 887.498 315.87 L887.498 293.6 C887.494 292.165 886.332 291.004 884.898 291 Z" fill="#ffffff" fill-opacity="1" stroke="none"/>
 <path id="Path-29" d="M884.898 328.95 L862.628 328.95 C861.196 328.955 860.037 330.117 860.038 331.55 L860.038 353.81 C860.036 354.498 860.308 355.159 860.794 355.647 861.28 356.134 861.94 356.409 862.628 356.409 L884.898 356.409 C886.334 356.409 887.497 355.245 887.498 353.81 L887.498 331.55 C887.494 330.115 886.332 328.954 884.898 328.95 Z" fill="#ffb442" fill-opacity="1" stroke="none"/>
 <path id="Path-30" d="M884.898 366.899 L862.628 366.899 C861.196 366.905 860.038 368.067 860.038 369.5 L860.038 391.76 C860.036 392.448 860.308 393.109 860.794 393.597 861.28 394.084 861.94 394.359 862.628 394.36 L884.898 394.36 C886.334 394.359 887.497 393.195 887.498 391.76 L887.498 369.5 C887.494 368.065 886.332 366.904 884.898 366.899 Z" fill="#e6e6e6" fill-opacity="1" stroke="none"/>
 <path id="Path-31" d="M884.898 404.85 L862.628 404.85 C861.94 404.85 861.28 405.125 860.794 405.613 860.308 406.1 860.036 406.761 860.038 407.45 L860.038 429.71 C860.036 430.398 860.308 431.059 860.794 431.547 861.28 432.034 861.94 432.309 862.628 432.31 L884.898 432.31 C886.334 432.309 887.497 431.145 887.498 429.71 L887.498 407.45 C887.498 406.014 886.334 404.85 884.898 404.85 Z" fill="#ffffff" fill-opacity="1" stroke="none"/>
 <path id="Path-32" d="M931.658 253.05 L909.388 253.05 C907.956 253.055 906.797 254.217 906.798 255.649 L906.798 277.919 C906.798 279.349 907.957 280.509 909.388 280.51 L931.658 280.51 C933.09 280.51 934.253 279.352 934.258 277.919 L934.258 255.649 C934.254 254.215 933.092 253.054 931.658 253.05 Z" fill="#ffb442" fill-opacity="1" stroke="none"/>
 <path id="Path-33" d="M931.658 291 L909.388 291 C907.956 291.005 906.797 292.167 906.798 293.6 L906.798 315.87 C906.798 317.299 907.957 318.459 909.388 318.46 L931.658 318.46 C933.09 318.46 934.253 317.302 934.258 315.87 L934.258 293.6 C934.254 292.165 933.092 291.004 931.658 291 Z" fill="#ffb442" fill-opacity="1" stroke="none"/>
 <path id="Path-34" d="M931.658 328.95 L909.388 328.95 C907.956 328.955 906.797 330.117 906.798 331.55 L906.798 353.81 C906.796 354.498 907.068 355.159 907.554 355.647 908.04 356.134 908.7 356.409 909.388 356.409 L931.658 356.409 C933.094 356.409 934.257 355.245 934.258 353.81 L934.258 331.55 C934.254 330.115 933.092 328.954 931.658 328.95 Z" fill="#e6e6e6" fill-opacity="1" stroke="none"/>
 <path id="Path-35" d="M931.658 366.899 L909.388 366.899 C907.956 366.905 906.797 368.067 906.798 369.5 L906.798 391.76 C906.796 392.448 907.068 393.109 907.554 393.597 908.04 394.084 908.7 394.359 909.388 394.36 L931.658 394.36 C933.094 394.359 934.257 393.195 934.258 391.76 L934.258 369.5 C934.254 368.065 933.092 366.904 931.658 366.899 Z" fill="#ffffff" fill-opacity="1" stroke="none"/>
 <path id="Path-36" d="M931.658 404.85 L909.388 404.85 C908.7 404.85 908.04 405.125 907.554 405.613 907.068 406.1 906.796 406.761 906.798 407.45 L906.798 429.71 C906.796 430.398 907.068 431.059 907.554 431.547 908.04 432.034 908.7 432.309 909.388 432.31 L931.658 432.31 C933.094 432.309 934.257 431.145 934.258 429.71 L934.258 407.45 C934.257 406.014 933.094 404.85 931.658 404.85 Z" fill="#ffb442" fill-opacity="1" stroke="none"/>
 <path id="Path-37" d="M978.418 253.05 L956.148 253.05 C954.716 253.055 953.557 254.217 953.558 255.649 L953.558 277.919 C953.558 279.349 954.717 280.509 956.148 280.51 L978.418 280.51 C979.85 280.51 981.013 279.352 981.018 277.919 L981.018 255.649 C981.014 254.215 979.852 253.054 978.418 253.05 Z" fill="#ffb442" fill-opacity="1" stroke="none"/>
 <path id="Path-38" d="M978.418 291 L956.148 291 C954.716 291.005 953.557 292.167 953.558 293.6 L953.558 315.87 C953.558 317.299 954.717 318.459 956.148 318.46 L978.418 318.46 C979.85 318.46 981.013 317.302 981.018 315.87 L981.018 293.6 C981.014 292.165 979.852 291.004 978.418 291 Z" fill="#ffb442" fill-opacity="1" stroke="none"/>
 <path id="Path-39" d="M978.418 328.95 L956.148 328.95 C954.716 328.955 953.557 330.117 953.558 331.55 L953.558 353.81 C953.556 354.498 953.828 355.159 954.314 355.647 954.8 356.134 955.46 356.409 956.148 356.409 L978.418 356.409 C979.854 356.409 981.017 355.245 981.018 353.81 L981.018 331.55 C981.014 330.115 979.852 328.954 978.418 328.95 Z" fill="#e6e6e6" fill-opacity="1" stroke="none"/>
 <path id="Path-40" d="M978.418 366.899 L956.148 366.899 C954.716 366.905 953.557 368.067 953.558 369.5 L953.558 391.76 C953.556 392.448 953.828 393.109 954.314 393.597 954.8 394.084 955.46 394.359 956.148 394.36 L978.418 394.36 C979.854 394.359 981.017 393.195 981.018 391.76 L981.018 369.5 C981.014 368.065 979.852 366.904 978.418 366.899 Z" fill="#ffb442" fill-opacity="1" stroke="none"/>
 <path id="Path-41" d="M978.418 404.85 L956.148 404.85 C955.46 404.85 954.8 405.125 954.314 405.613 953.828 406.1 953.556 406.761 953.558 407.45 L953.558 429.71 C953.556 430.398 953.828 431.059 954.314 431.547 954.8 432.034 955.46 432.309 956.148 432.31 L978.418 432.31 C979.854 432.309 981.017 431.145 981.018 429.71 L981.018 407.45 C981.017 406.014 979.854 404.85 978.418 404.85 Z" fill="#ffb442" fill-opacity="1" stroke="none"/>
 <path id="Path-42" d="M1025.178 253.05 L1002.908 253.05 C1001.476 253.055 1000.318 254.217 1000.318 255.649 L1000.318 277.919 C1000.318 279.349 1001.477 280.509 1002.908 280.51 L1025.178 280.51 C1026.61 280.51 1027.773 279.352 1027.778 277.919 L1027.778 255.649 C1027.774 254.215 1026.612 253.054 1025.178 253.05 Z" fill="#e6e6e6" fill-opacity="1" stroke="none"/>
 <path id="Path-43" d="M1025.178 291 L1002.908 291 C1001.476 291.005 1000.318 292.167 1000.318 293.6 L1000.318 315.87 C1000.318 317.299 1001.477 318.459 1002.908 318.46 L1025.178 318.46 C1026.61 318.46 1027.773 317.302 1027.778 315.87 L1027.778 293.6 C1027.774 292.165 1026.612 291.004 1025.178 291 Z" fill="#ffb442" fill-opacity="1" stroke="none"/>
 <path id="Path-44" d="M1025.178 328.95 L1002.908 328.95 C1001.476 328.955 1000.318 330.117 1000.318 331.55 L1000.318 353.81 C1000.316 354.498 1000.588 355.159 1001.074 355.647 1001.56 356.134 1002.22 356.409 1002.908 356.409 L1025.178 356.409 C1026.614 356.409 1027.777 355.245 1027.778 353.81 L1027.778 331.55 C1027.774 330.115 1026.612 328.954 1025.178 328.95 Z" fill="#ffb442" fill-opacity="1" stroke="none"/>
 <path id="Path-45" d="M1025.178 366.899 L1002.908 366.899 C1001.476 366.905 1000.318 368.067 1000.318 369.5 L1000.318 391.76 C1000.316 392.448 1000.588 393.109 1001.074 393.597 1001.56 394.084 1002.22 394.359 1002.908 394.36 L1025.178 394.36 C1026.614 394.359 1027.777 393.195 1027.778 391.76 L1027.778 369.5 C1027.774 368.065 1026.612 366.904 1025.178 366.899 Z" fill="#ffb442" fill-opacity="1" stroke="none"/>
 <path id="Path-46" d="M1025.178 404.85 L1002.908 404.85 C1002.22 404.85 1001.56 405.125 1001.074 405.613 1000.588 406.1 1000.316 406.761 1000.318 407.45 L1000.318 429.71 C1000.316 430.398 1000.588 431.059 1001.074 431.547 1001.56 432.034 1002.22 432.309 1002.908 432.31 L1025.178 432.31 C1026.614 432.309 1027.777 431.145 1027.778 429.71 L1027.778 407.45 C1027.777 406.014 1026.614 404.85 1025.178 404.85 Z" fill="#e6e6e6" fill-opacity="1" stroke="none"/>
 <path id="Path-47" d="M1071.938 253.05 L1049.668 253.05 C1048.236 253.055 1047.078 254.217 1047.078 255.649 L1047.078 277.919 C1047.078 279.349 1048.237 280.509 1049.667 280.51 L1071.938 280.51 C1073.37 280.51 1074.533 279.352 1074.538 277.919 L1074.538 255.649 C1074.534 254.215 1073.372 253.054 1071.938 253.05 Z" fill="#e6e6e6" fill-opacity="1" stroke="none"/>
 <path id="Path-48" d="M1071.938 291 L1049.668 291 C1048.236 291.005 1047.077 292.167 1047.078 293.6 L1047.078 315.87 C1047.078 317.299 1048.237 318.459 1049.667 318.46 L1071.938 318.46 C1073.37 318.46 1074.533 317.302 1074.538 315.87 L1074.538 293.6 C1074.534 292.165 1073.372 291.004 1071.938 291 Z" fill="#e6e6e6" fill-opacity="1" stroke="none"/>
 <path id="Path-49" d="M1071.938 328.95 L1049.668 328.95 C1048.236 328.955 1047.077 330.117 1047.078 331.55 L1047.078 353.81 C1047.076 354.498 1047.348 355.159 1047.834 355.647 1048.32 356.134 1048.98 356.409 1049.668 356.409 L1071.938 356.409 C1073.374 356.409 1074.537 355.245 1074.538 353.81 L1074.538 331.55 C1074.534 330.115 1073.372 328.954 1071.938 328.95 Z" fill="#ffb442" fill-opacity="1" stroke="none"/>
 <path id="Path-50" d="M1071.938 366.899 L1049.668 366.899 C1048.236 366.905 1047.078 368.067 1047.078 369.5 L1047.078 391.76 C1047.076 392.448 1047.348 393.109 1047.834 393.597 1048.32 394.084 1048.98 394.359 1049.668 394.36 L1071.938 394.36 C1073.374 394.359 1074.537 393.195 1074.538 391.76 L1074.538 369.5 C1074.534 368.065 1073.372 366.904 1071.938 366.899 Z" fill="#e6e6e6" fill-opacity="1" stroke="none"/>
 <path id="Path-51" d="M1071.938 404.85 L1049.668 404.85 C1048.98 404.85 1048.32 405.125 1047.834 405.612 1047.348 406.1 1047.076 406.761 1047.078 407.45 L1047.078 429.71 C1047.076 430.398 1047.348 431.059 1047.834 431.547 1048.32 432.034 1048.98 432.309 1049.668 432.31 L1071.938 432.31 C1073.374 432.309 1074.537 431.145 1074.538 429.71 L1074.538 407.45 C1074.537 406.014 1073.374 404.85 1071.938 404.85 Z" fill="#e6e6e6" fill-opacity="1" stroke="none"/>
 <path id="Path-52" d="M560.095 733.051 L559.475 733.051 560.005 732.981 Z" fill="#2f2e41" fill-opacity="1" stroke="none"/>
 <path id="b6132315-04e2-4cdb-a713-107c9cd58b0b" d="M575.136 249.733 C575.136 287.466 544.547 318.055 506.814 318.055 469.081 318.055 438.493 287.466 438.493 249.733 438.493 212 469.081 181.411 506.814 181.411 544.547 181.411 575.136 212 575.136 249.733 Z" fill="#ffb6b6" fill-opacity="1" stroke="none"/>
 <path id="f4304bdd-ba2d-4fff-b404-410205410c5d" d="M566.646 199.64 C566.646 199.64 584.515 165.479 545.202 162.374 545.202 162.374 511.687 131.972 477.526 156.816 477.526 156.816 458.893 156.816 448.704 177.902 448.704 177.902 434.049 172.344 430.828 187.218 430.828 187.218 420.105 218.274 430.828 246.224 441.552 274.173 445.114 277.279 445.114 277.279 445.114 277.279 427.493 218.68 470.384 215.575 513.274 212.469 561.27 185.665 564.845 219.826 568.419 253.987 573.798 262.404 573.798 262.404 573.798 262.404 607.748 213.615 566.646 199.64 Z" fill="#2f2e41" fill-opacity="1" stroke="none"/>
 <path id="Path-53" d="M683.548 418.11 L683.328 419.27 680.858 432.31 663.788 522.51 662.778 527.82 660.658 539.05 657.758 554.37 651.328 588.32 649.488 598.05 648.798 601.7 648.558 602.979 646.648 613.05 646.068 616.089 641.408 650.62 637.338 680.709 650.958 694.329 642.838 702.449 637.508 732.979 637.518 733.05 419.988 733.05 Q406.788 724.499 393.968 715.419 L395.758 702.02 C395.758 702.02 401.918 678.089 399.328 675.229 396.748 672.37 391.088 667.26 391.088 667.26 L398.218 650.62 399.208 648.31 397.548 613.88 397.508 613.05 396.958 601.699 396.888 600.239 396.778 598.049 394.668 554.37 394.628 553.649 393.988 540.409 393.388 527.82 393.128 522.51 390.558 469.379 388.818 433.3 387.298 401.89 393.408 399.82 458.758 377.609 485.828 342.419 542.168 342.839 569.748 343.049 615.768 385.729 626.238 390.729 626.318 390.769 633.828 394.359 652.868 403.449 672.998 413.07 683.328 418 Z" fill="#cacaca" fill-opacity="1" stroke="none"/>
 <path id="Path-54" d="M493.109 630.551 C484.751 633.789 475.389 633.158 467.54 628.829 459.692 624.5 454.165 616.917 452.445 608.121 L345.886 593.003 382.929 551.101 478.44 571.881 C493.745 569.929 508.091 579.732 511.834 594.701 515.576 609.669 507.532 625.07 493.109 630.551 Z" fill="#ffb6b6" fill-opacity="1" stroke="none"/>
 <path id="Path-55" d="M445.598 554.37 C443.624 551.867 440.83 550.142 437.708 549.5 L393.988 540.409 389.498 539.479 C384.22 538.378 379.663 535.079 376.968 530.409 375.586 527.986 374.75 525.29 374.518 522.51 374.31 519.982 374.612 517.438 375.408 515.03 L390.558 469.38 400.388 439.76 C401.579 436.187 402.282 432.47 402.478 428.71 403.026 418.302 399.806 408.046 393.408 399.82 381.86 384.973 361.956 379.434 344.398 386.18 344.148 386.27 343.888 386.37 343.638 386.47 331.204 391.434 321.829 401.957 318.328 414.88 L307.648 453.73 285.618 533.82 C281.155 550.058 284.001 567.435 293.409 581.402 302.818 595.369 317.853 604.534 334.578 606.5 L397.548 613.88 426.688 617.299 C433.676 618.139 440.136 613.468 441.528 606.57 441.575 606.388 441.612 606.205 441.638 606.019 L442.338 601.699 448.268 565.32 448.328 564.949 C448.953 561.196 447.961 557.353 445.598 554.37 Z" fill="#cacaca" fill-opacity="1" stroke="none"/>
 <path id="Path-56" d="M560.983 631.717 C569.713 633.744 578.893 631.8 586.053 626.407 593.212 621.015 597.615 612.728 598.077 603.777 L701.439 573.783 658.858 537.524 567.231 571.565 C551.804 571.791 538.983 583.519 537.389 598.866 535.795 614.212 545.931 628.326 560.983 631.717 Z" fill="#ffb6b6" fill-opacity="1" stroke="none"/>
 <path id="Path-57" d="M752.758 506.69 L703.598 393.55 C699.577 384.261 692.396 376.697 683.328 372.2 680.525 370.82 677.581 369.747 674.548 369 674.078 368.88 673.608 368.77 673.138 368.679 666.706 367.276 660.034 367.399 653.658 369.04 641.87 372.068 631.929 379.97 626.318 390.77 626.288 390.814 626.261 390.861 626.238 390.909 619.954 403.066 619.816 417.485 625.868 429.76 L626.478 430.98 661.218 500.75 C663.617 505.575 663.843 511.195 661.837 516.198 659.832 521.2 655.786 525.108 650.718 526.94 L648.278 527.82 604.398 543.67 C597.554 546.112 593.872 553.533 596.068 560.459 L596.178 560.81 608.478 600.169 C608.538 600.349 608.598 600.53 608.668 600.709 608.776 601.049 608.91 601.38 609.068 601.699 611.768 607.756 618.473 610.949 624.878 609.229 L648.558 602.979 653.388 601.699 714.538 585.55 C730.82 581.247 744.414 570.052 751.759 554.897 759.104 539.742 759.469 522.136 752.758 506.689 Z" fill="#cacaca" fill-opacity="1" stroke="none"/>
 <path id="Path-58" d="M268.898 601.7 C283.069 618.983 298.35 635.324 314.648 650.619 L766.618 650.62 C775.684 650.634 783.029 657.983 783.038 667.049 L783.688 781.58 C811.493 768.805 837.531 752.493 861.158 733.05 Q870.998 724.964 880.228 716.18 886.273 710.45 892.028 704.44 C920.792 674.475 944.084 639.702 960.848 601.7 Z" fill="#3f3d56" fill-opacity="1" stroke="none"/>
 <path id="Path-59" d="M892.028 704.44 Q886.283 710.455 880.228 716.18 L784.018 716.18 784.018 704.44 Z" fill="#ffffff" fill-opacity="1" stroke="none"/>
 <path id="Path-60" d="M682.648 328.95 C681.68 327.162 679.81 326.049 677.778 326.05 L349.938 326.05 C346.878 326.058 344.401 328.539 344.398 331.6 L344.398 527.82 683.328 527.82 683.328 331.6 C683.333 330.672 683.099 329.76 682.648 328.949 Z" fill="#3f3d56" fill-opacity="1" stroke="none"/>
 <path id="Path-61" d="M344.101 522.507 L344.101 546.721 C344.101 548.748 344.906 550.693 346.34 552.126 347.773 553.56 349.718 554.365 351.745 554.365 L476.842 554.365 476.842 602.151 475.18 602.151 C474.916 602.151 474.664 602.256 474.478 602.442 474.291 602.628 474.187 602.881 474.187 603.144 L474.187 606.468 C474.187 606.732 474.291 606.984 474.478 607.17 474.664 607.357 474.917 607.461 475.18 607.461 L552.838 607.461 C553.102 607.461 553.354 607.357 553.54 607.17 553.727 606.984 553.831 606.732 553.831 606.468 L553.831 603.144 C553.831 602.881 553.727 602.628 553.54 602.442 553.354 602.256 553.102 602.151 552.838 602.151 L551.176 602.151 551.176 554.365 676.273 554.365 C678.3 554.365 680.245 553.56 681.678 552.126 683.112 550.693 683.917 548.748 683.917 546.721 L683.917 522.507 Z" fill="#3f3d56" fill-opacity="1" stroke="none"/>
 <path id="Path-62" d="M541.209 421.704 C541.209 438.994 527.193 453.01 509.903 453.01 492.613 453.01 478.596 438.994 478.596 421.704 478.596 404.414 492.613 390.397 509.903 390.397 527.193 390.397 541.209 404.414 541.209 421.704 Z" fill="#ffb442" fill-opacity="1" stroke="none"/>
 <path id="Path-63" d="M589.668 246 L584.668 246 C584.668 208.2 547.258 183.43 509.518 183.41 504.029 183.393 498.551 183.926 493.168 185 487.108 186.21 480.818 187.66 474.638 189.55 450.268 197.02 427.668 211.46 427.668 246 427.663 252.708 428.516 259.389 430.208 265.88 L425.368 267.14 C423.573 260.236 422.665 253.132 422.668 246 422.668 215.82 435.058 195.09 456.458 182.73 467.708 176.23 481.438 172.04 497.168 170 503.714 169.129 510.331 168.928 516.918 169.4 560.318 172.52 589.668 205.8 589.668 246 Z" fill="#ffb442" fill-opacity="1" stroke="none"/>
 <path id="Path-64" d="M597.998 248.77 L596.028 234.21 C595.542 230.533 593.771 227.146 591.028 224.65 587.46 221.352 582.575 219.877 577.778 220.65 L574.648 221.08 C572.918 221.307 571.351 222.218 570.298 223.61 569.236 224.996 568.771 226.749 569.008 228.479 L573.558 262.02 C573.943 264.823 576.077 267.066 578.858 267.59 579.26 267.67 579.668 267.71 580.078 267.71 580.372 267.709 580.666 267.689 580.958 267.65 L584.458 267.18 C588.771 266.607 592.657 264.281 595.198 260.75 595.468 260.37 595.728 259.98 595.968 259.579 597.842 256.307 598.558 252.499 597.998 248.77 Z" fill="#ffb442" fill-opacity="1" stroke="none"/>
 <path id="Path-65" d="M572.628 221.69 C571.71 222.136 570.911 222.794 570.298 223.61 569.236 224.996 568.771 226.749 569.008 228.48 L573.558 262.02 C573.943 264.823 576.077 267.066 578.858 267.59 Z" fill="#ffffff" fill-opacity="1" stroke="none"/>
 <path id="Path-66" d="M597.998 248.77 L596.028 234.21 C595.542 230.533 593.771 227.146 591.028 224.65 L595.558 258.02 C595.626 258.555 595.764 259.08 595.968 259.58 597.842 256.307 598.558 252.499 597.998 248.77 Z" fill="#3f3d56" fill-opacity="1" stroke="none"/>
 <path id="Path-67" d="M583.965 251.988 C584.484 255.819 583.797 259.075 582.428 259.26 581.06 259.446 579.53 256.491 579.01 252.66 578.49 248.829 579.178 245.573 580.546 245.387 581.915 245.202 583.445 248.157 583.965 251.988 Z" fill="#3f3d56" fill-opacity="1" stroke="none"/>
 <path id="Path-68" d="M580.965 233.988 C581.484 237.819 580.797 241.075 579.428 241.26 578.06 241.446 576.53 238.491 576.01 234.66 575.49 230.829 576.178 227.573 577.546 227.387 578.915 227.202 580.445 230.157 580.965 233.988 Z" fill="#3f3d56" fill-opacity="1" stroke="none"/>
 <path id="Path-69" d="M599.965 240.988 C600.484 244.819 599.797 248.075 598.428 248.26 597.06 248.446 595.53 245.491 595.01 241.66 594.49 237.829 595.178 234.573 596.546 234.387 597.915 234.202 599.445 237.157 599.965 240.988 Z" fill="#3f3d56" fill-opacity="1" stroke="none"/>
 <path id="Path-70" d="M509.518 183.41 C504.029 183.393 498.551 183.926 493.168 185 487.108 186.21 480.818 187.66 474.638 189.55 464.988 189.08 457.888 186.58 456.458 182.73 467.708 176.23 481.438 172.04 497.168 170 503.714 169.129 510.331 168.928 516.918 169.4 518.328 170.226 519.318 171.616 519.638 173.22 520.108 176.7 516.138 180.4 509.518 183.41 Z" fill="#3f3d56" fill-opacity="1" stroke="none"/>
 <path id="Path-71" d="M445.678 280.7 L437.978 248.69 C437.417 246.328 435.493 244.535 433.098 244.14 432.767 244.088 432.433 244.061 432.098 244.06 431.626 244.061 431.156 244.118 430.698 244.23 L427.718 244.95 C419.729 246.882 414.812 254.917 416.728 262.91 L420.178 277.27 C420.966 280.65 422.842 283.679 425.518 285.89 425.952 286.24 426.406 286.564 426.878 286.86 430.264 288.982 434.365 289.646 438.248 288.7 L441.218 287.98 C442.003 287.796 442.742 287.453 443.388 286.97 445.352 285.537 446.257 283.061 445.678 280.7 Z" fill="#ffb442" fill-opacity="1" stroke="none"/>
 <path id="Path-72" d="M430.329 267.353 C431.233 271.112 430.878 274.421 429.536 274.744 428.193 275.067 426.372 272.282 425.467 268.523 424.563 264.764 424.918 261.455 426.26 261.132 427.603 260.809 429.424 263.594 430.329 267.353 Z" fill="#3f3d56" fill-opacity="1" stroke="none"/>
 <path id="Path-73" d="M420.329 270.353 C421.233 274.112 420.878 277.421 419.536 277.744 418.193 278.067 416.372 275.282 415.467 271.523 414.563 267.764 414.918 264.455 416.26 264.132 417.603 263.809 419.424 266.594 420.329 270.353 Z" fill="#3f3d56" fill-opacity="1" stroke="none"/>
 <path id="Path-74" d="M446.168 280.58 L438.468 248.57 C437.855 246.015 435.77 244.076 433.178 243.65 L443.688 287.37 C445.811 285.815 446.789 283.136 446.168 280.58 Z" fill="#ffffff" fill-opacity="1" stroke="none"/>
 <path id="Path-75" d="M418.468 256.57 C418.256 255.679 417.857 254.844 417.298 254.12 416.216 256.923 416.017 259.99 416.728 262.91 L420.178 277.27 C420.966 280.65 422.842 283.679 425.518 285.89 Z" fill="#3f3d56" fill-opacity="1" stroke="none"/>
</svg>
